<!DOCTYPE svg PUBLIC "-//W3C//DTD SVG 1.1//EN" "http://www.w3.org/Graphics/SVG/1.1/DTD/svg11.dtd">
<!-- Uploaded to: SVG Repo, www.svgrepo.com, Transformed by: SVG Repo Mixer Tools -->
<svg fill="#ffffff" height="800px" width="800px" version="1.1" id="Layer_1" xmlns="http://www.w3.org/2000/svg" xmlns:xlink="http://www.w3.org/1999/xlink" viewBox="0 0 512 512" xml:space="preserve" stroke="#ffffff">
<g id="SVGRepo_bgCarrier" stroke-width="0"/>
<g id="SVGRepo_tracerCarrier" stroke-linecap="round" stroke-linejoin="round"/>
<g id="SVGRepo_iconCarrier"> <g> <g> <path d="M304.137,170.667c-18.344,0-35.83,7.917-48.137,21.273c-12.307-13.357-29.793-21.273-48.137-21.273 c-36.194,0-65.641,29.773-65.641,66.37c0,22.236,30.604,56.732,48.847,75.313c12.096,12.322,24.894,23.893,36.035,32.583 c17.462,13.618,24.614,15.363,28.896,15.363s11.434-1.745,28.896-15.363c11.141-8.69,23.939-20.262,36.035-32.583 c18.243-18.581,48.847-53.076,48.847-75.313C369.778,200.44,340.331,170.667,304.137,170.667z M309.183,297.239 c-25.715,26.521-47.275,42.005-53.183,43.977c-5.907-1.972-27.468-17.456-53.183-43.977 c-28.759-29.662-41.632-51.609-41.632-60.201c0-26.141,20.94-47.407,46.678-47.407c16.497,0,31.444,8.574,39.987,22.935 c1.71,2.873,4.806,4.634,8.149,4.634c3.344,0,6.44-1.762,8.149-4.634c8.543-14.361,23.491-22.935,39.987-22.935 c25.738,0,46.678,21.266,46.678,47.407C350.815,245.63,337.942,267.576,309.183,297.239z"/> </g> </g> <g> <g> <path d="M256,0C114.841,0,0,114.84,0,256s114.841,256,256,256s256-114.84,256-256S397.159,0,256,0z M461.255,137.544 l-69.918,31.074c-12.42-19.169-28.786-35.535-47.955-47.954l31.074-69.919C410.414,71.579,440.421,101.586,461.255,137.544z M398.222,256c0,78.421-63.801,142.222-142.222,142.222S113.778,334.421,113.778,256S177.579,113.778,256,113.778 S398.222,177.579,398.222,256z M256,18.963c36.355,0,70.82,8.236,101.64,22.926l-30.825,69.356 c-21.389-10.507-45.419-16.43-70.815-16.43c-25.396,0-49.426,5.924-70.815,16.43L154.36,41.889 C185.18,27.199,219.645,18.963,256,18.963z M137.544,50.745l31.074,69.919c-19.169,12.419-35.535,28.785-47.955,47.953 l-69.918-31.074C71.579,101.586,101.586,71.579,137.544,50.745z M18.963,256c0-36.357,8.236-70.82,22.926-101.641l69.356,30.826 c-10.507,21.389-16.43,45.419-16.43,70.815c0,25.396,5.924,49.426,16.43,70.815l-69.356,30.826 C27.199,326.82,18.963,292.357,18.963,256z M50.745,374.456l69.918-31.074c12.42,19.169,28.786,35.535,47.955,47.953 l-31.074,69.919C101.586,440.421,71.579,410.414,50.745,374.456z M256,493.037c-36.355,0-70.82-8.236-101.64-22.926l30.825-69.356 c21.389,10.507,45.419,16.43,70.815,16.43c25.396,0,49.426-5.924,70.815-16.43l30.825,69.356 C326.82,484.801,292.355,493.037,256,493.037z M374.456,461.255l-31.074-69.919c19.169-12.419,35.535-28.785,47.955-47.954 l69.918,31.074C440.421,410.414,410.414,440.421,374.456,461.255z M400.755,326.815c10.507-21.389,16.43-45.419,16.43-70.815 c0-25.396-5.924-49.426-16.43-70.815l69.356-30.826c14.69,30.822,22.926,65.285,22.926,101.641s-8.236,70.82-22.926,101.641 L400.755,326.815z"/> </g> </g> </g>
</svg>